88      a8P          db         88888888ba   88  888b      88         db         
88    ,88'          d88b        88      "8b  ""  8888b     88        d88b        
88  ,88"           d8'`8b       88      ,8P      88 `8b    88       d8'`8b       
88,d88'           d8'  `8b      88aaaaaa8P'  88  88  `8b   88      d8'  `8b      
8888"88,         d8YaaaaY8b     88""""88'    88  88   `8b  88     d8YaaaaY8b     
88P   Y8b       d8""""""""8b    88    `8b    88  88    `8b 88    d8""""""""8b    
88     "88,    d8'        `8b   88     `8b   88  88     `8888   d8'        `8b   
88       Y8b  d8'          `8b  88      `8b  88  88      `888  d8'          `8b  
-------------------------------------------------------------------------------
                    -------------------------------------
          [ In.the.Realm.of.the.Senses.1976.DVDRip.x264.AC3-KARiNA ]            
                    -------------------------------------

[Synopsis]==================================                                                                

In the Realm of the Senses | Japan / France | 1976 | Directed by Nagisa Oshima
                                  
Based upon a true incident in 1930s Japan, Nagisa Oshima's controversial film effectively skirts the borderline between pornography and art -- making Bernardo Bertolucci's Last Tango in Paris of four years earlier look like children's programming in comparison. The story concerns servant and former prostitute Sada Abe (Eiko Matsuda) who becomes sexually obsessed with her employer Kizicho (Tatsuya Fuji), a businessman, after seeing him making love to his wife. After making love to Sada, Kizicho becomes obsessed with her as well. As their love-making becomes more and more intense, they find themselves unable to separate themselves from each other, until every waking hour is spent in more and more dangerous sexual acts with Sada becoming more and more of the aggressor. Finally, for the ultimate in eroticism, Kizicho agrees to be strangled during sexual ecstasy for the ultimate in orgasmic fulfillment.

[ IMdB: http://www.imdb.com/title/tt0074102/ | Rating: 6.6 / 10 (4,595 votes) ]
                                     
[General]===================================                                                                 

Complete name                    : In.the.Realm.of.the.Senses.1976.DVDRip.x264.AC3-KARiNA
Format                           : Matroska
File size                        : 1.71 GiB
Duration                         : 1h 42mn
Overall bit rate                 : 2 387 Kbps
Source                           : Criterion NTSC DVD9

[Video]=====================================
                                 
Format                           : AVC
Codec ID                         : V_MPEG4/ISO/AVC
Bit rate                         : 1 954 Kbps
Nominal bit rate                 : 2 000 Kbps
Width                            : 720 pixels
Height                           : 480 pixels
Display aspect ratio             : 16/9
Frame rate                       : 23.976 fps
Standard                         : NTSC
Resolution                       : 24 bits
Colorimetry                      : 4:2:0
Scan type                        : Progressive
Bits/(Pixel*Frame)               : 0.236
Stream size                      : 1.40 GiB (82%)
Title                            : Track 1
Writing library                  : x264 core 65

[Audio]=====================================                              

[] Track 1

Format                           : AC-3
Codec ID                         : A_AC3
Bit rate mode                    : Constant
Bit rate                         : 192 Kbps
Channel(s)                       : 1 channel
Channel positions                : C
Sampling rate                    : 48.0 KHz
Stream size                      : 141 MiB (8%)
Title                            : Track 1
Language                         : Japanese

[] Track 2 - Commentary by film scholar Tony Rayns

Format                           : AC-3
Codec ID                         : A_AC3
Bit rate mode                    : Constant
Bit rate                         : 192 Kbps
Channel(s)                       : 1 channel
Channel positions                : C
Sampling rate                    : 48.0 KHz
Stream size                      : 141 MiB (8%)
Title                            : Track 2
Language                         : English

[Subtitles]=================================

Format                           : UTF-8
Codec ID                         : S_TEXT/UTF8
Title                            : Track 1
Language                         : English

[Chapters]==================================

00:00:00.000                     : :Chapter 1
00:04:02.308                     : :Chapter 2
00:07:23.142                     : :Chapter 3
00:11:08.901                     : :Chapter 4
00:14:43.616                     : :Chapter 5
00:19:57.429                     : :Chapter 6
00:22:29.081                     : :Chapter 7
00:24:56.194                     : :Chapter 8
00:30:26.191                     : :Chapter 9
00:34:27.799                     : :Chapter 10
00:37:49.467                     : :Chapter 11
00:40:29.460                     : :Chapter 12
00:45:25.089                     : :Chapter 13
00:50:22.386                     : :Chapter 14
00:55:25.522                     : :Chapter 15
00:58:05.215                     : :Chapter 16
01:01:15.605                     : :Chapter 17
01:05:19.949                     : :Chapter 18
01:10:28.958                     : :Chapter 19
01:17:35.884                     : :Chapter 20
01:20:23.685                     : :Chapter 21
01:26:57.412                     : :Chapter 22
01:29:26.761                     : :Chapter 23
01:36:22.009                     : :Chapter 24
01:42:25.672                     : :Chapter 25

[KARiNA]===================================